<svg xmlns="http://www.w3.org/2000/svg" xmlns:xlink="http://www.w3.org/1999/xlink" viewBox="0 0 68 68"><defs><style>.cls-1{fill:#fff;}.cls-2{fill:none;stroke-miterlimit:10;stroke:url(#Dégradé_sans_nom_95);}</style><linearGradient id="Dégradé_sans_nom_95" x1="16.6" y1="34" x2="51.4" y2="34" gradientUnits="userSpaceOnUse"><stop offset="0" stop-color="#e6cc27"/><stop offset="0.21" stop-color="#f0c32a"/><stop offset="0.59" stop-color="#fbb92e"/><stop offset="0.99" stop-color="#ffb62f"/></linearGradient></defs><title>add</title><g id="Calque_2" data-name="Calque 2"><g id="Calque_1-2" data-name="Calque 1"><circle class="cls-1" cx="34" cy="34" r="34"/><path class="cls-2" d="M50.9,31.69v4.62a2.32,2.32,0,0,1-2.31,2.31h-10v10a2.32,2.32,0,0,1-2.31,2.31H31.69a2.32,2.32,0,0,1-2.31-2.31v-10h-10a2.32,2.32,0,0,1-2.31-2.31V31.69a2.32,2.32,0,0,1,2.31-2.31h10v-10a2.32,2.32,0,0,1,2.31-2.31h4.62a2.32,2.32,0,0,1,2.31,2.31v10h10a2.32,2.32,0,0,1,2.31,2.31Z"/></g></g></svg>