<svg xmlns="http://www.w3.org/2000/svg" xmlns:xlink="http://www.w3.org/1999/xlink" viewBox="0 0 664.37 750.38"><defs><style>.cls-1{fill:url(#Dégradé_sans_nom_13);}.cls-2{fill:#eaeaea;}.cls-3{fill:url(#Dégradé_sans_nom_13-2);}.cls-4{fill:url(#Dégradé_sans_nom_28);}</style><linearGradient id="Dégradé_sans_nom_13" x1="486.27" y1="116.76" x2="1026.27" y2="-113.24" gradientUnits="userSpaceOnUse"><stop offset="0" stop-color="#ff007c"/><stop offset="0.02" stop-color="#f4007f"/><stop offset="0.11" stop-color="#bc0090"/><stop offset="0.21" stop-color="#8a009f"/><stop offset="0.31" stop-color="#5f00ac"/><stop offset="0.41" stop-color="#3d00b7"/><stop offset="0.51" stop-color="#2200bf"/><stop offset="0.61" stop-color="#0f00c4"/><stop offset="0.72" stop-color="#0400c8"/><stop offset="0.83" stop-color="#0000c9"/></linearGradient><linearGradient id="Dégradé_sans_nom_13-2" x1="213.7" y1="373.4" x2="-441.77" y2="250.4" gradientTransform="translate(9.46 -8.2) rotate(1.42)" xlink:href="#Dégradé_sans_nom_13"/><linearGradient id="Dégradé_sans_nom_28" x1="382.84" y1="667.95" x2="163.55" y2="-575.3" gradientUnits="userSpaceOnUse"><stop offset="0" stop-color="#fff"/><stop offset="0.26" stop-color="#fcfcfc"/><stop offset="1" stop-color="#f8f8f8"/></linearGradient></defs><title>background 1</title><g id="Calque_2" data-name="Calque 2"><g id="Calque_1-2" data-name="Calque 1"><path class="cls-1" d="M24.52,319.74l639.84-14.21-6-268.41h0C603-5.59,523.2-12.08,459.64,20.95L396,54c-117.25,60.92-262,59.9-377.46-2.66h0Z"/><path class="cls-2" d="M15,317.68H655V49.21h0C600.54,5.27,520.95-3,456.67,28.61L392.34,60.24c-118.57,58.3-263.25,54.07-377.31-11h0Z"/><path class="cls-3" d="M639.8,750.38,0,734.49,17.26,39.36h0C72.82-3.21,152.6-9.49,216.07,23.7L279.6,56.92c117.09,61.23,261.82,60.59,377.47-1.67h0Z"/><path class="cls-4" d="M655,744.55H15V49.21h0C69.51,5.27,149.1-3,213.38,28.61l64.33,31.63C396.29,118.55,541,114.32,655,49.21h0Z"/></g></g></svg>