<svg xmlns="http://www.w3.org/2000/svg" xmlns:xlink="http://www.w3.org/1999/xlink" viewBox="0 0 142 142"><defs><style>.cls-1{fill:url(#Dégradé_sans_nom_13);}.cls-2{fill:url(#Dégradé_sans_nom_13-2);}.cls-3{fill:url(#Dégradé_sans_nom_13-3);}</style><linearGradient id="Dégradé_sans_nom_13" x1="33.46" y1="58.64" x2="393.44" y2="177.14" gradientUnits="userSpaceOnUse"><stop offset="0" stop-color="#ff007c"/><stop offset="0.02" stop-color="#f4007f"/><stop offset="0.11" stop-color="#bc0090"/><stop offset="0.21" stop-color="#8a009f"/><stop offset="0.31" stop-color="#5f00ac"/><stop offset="0.41" stop-color="#3d00b7"/><stop offset="0.51" stop-color="#2200bf"/><stop offset="0.61" stop-color="#0f00c4"/><stop offset="0.72" stop-color="#0400c8"/><stop offset="0.83" stop-color="#0000c9"/></linearGradient><linearGradient id="Dégradé_sans_nom_13-2" x1="412.01" y1="-114.38" x2="403.12" y2="-53.19" gradientTransform="translate(-271.55 -122.06) rotate(45)" xlink:href="#Dégradé_sans_nom_13"/><linearGradient id="Dégradé_sans_nom_13-3" x1="519.42" y1="-315.65" x2="510.53" y2="-254.46" gradientTransform="translate(631.82 197.7) rotate(-135)" xlink:href="#Dégradé_sans_nom_13"/></defs><title>capture</title><g id="Calque_2" data-name="Calque 2"><g id="Calque_1-2" data-name="Calque 1"><path class="cls-1" d="M71,142a71,71,0,1,1,71-71A71.08,71.08,0,0,1,71,142ZM71,3a68,68,0,1,0,68,68A68.08,68.08,0,0,0,71,3Z"/><path class="cls-2" d="M73.71,104.51a2.94,2.94,0,0,1,2.08-5H95.55A10.16,10.16,0,0,0,105.7,89.36V69a2.93,2.93,0,0,1,5.87,0V89.36a16,16,0,0,1-16,16H75.78A2.92,2.92,0,0,1,73.71,104.51Z"/><path class="cls-3" d="M68.29,37.49a2.94,2.94,0,0,1-2.08,5H46.45A10.16,10.16,0,0,0,36.3,52.64V73a2.93,2.93,0,0,1-5.87,0V52.64a16,16,0,0,1,16-16H66.22A2.92,2.92,0,0,1,68.29,37.49Z"/></g></g></svg>