<svg xmlns="http://www.w3.org/2000/svg" xmlns:xlink="http://www.w3.org/1999/xlink" viewBox="0 0 395.84 300.67"><defs><style>.cls-1{fill:url(#Dégradé_sans_nom_13);}.cls-2{fill:url(#Dégradé_sans_nom_13-2);}.cls-3{font-size:72.86px;fill:#0b0b4d;font-family:Panton-Regular, Panton;}.cls-4{letter-spacing:0em;}.cls-5{letter-spacing:0em;}</style><linearGradient id="Dégradé_sans_nom_13" x1="581.66" y1="-10.09" x2="549.74" y2="209.65" gradientTransform="translate(-192.65 -337.06) rotate(45)" gradientUnits="userSpaceOnUse"><stop offset="0" stop-color="#ff007c"/><stop offset="0.02" stop-color="#f4007f"/><stop offset="0.11" stop-color="#bc0090"/><stop offset="0.21" stop-color="#8a009f"/><stop offset="0.31" stop-color="#5f00ac"/><stop offset="0.41" stop-color="#3d00b7"/><stop offset="0.51" stop-color="#2200bf"/><stop offset="0.61" stop-color="#0f00c4"/><stop offset="0.72" stop-color="#0400c8"/><stop offset="0.83" stop-color="#0000c9"/></linearGradient><linearGradient id="Dégradé_sans_nom_13-2" x1="592.74" y1="-2.55" x2="560.82" y2="217.19" xlink:href="#Dégradé_sans_nom_13"/></defs><title>Fichier 3</title><g id="Calque_2" data-name="Calque 2"><g id="Calque_1-2" data-name="Calque 1"><path class="cls-1" d="M131.49,187.75a10.5,10.5,0,0,1-3.09-7.45V107.09a57.5,57.5,0,0,1,57.51-57.51h71a10.54,10.54,0,0,1,0,21.08h-71a36.43,36.43,0,0,0-36.43,36.43V180.3a10.54,10.54,0,0,1-18,7.45Z"/><path class="cls-2" d="M131.49,138.17a10.54,10.54,0,0,1,7.45-18h71a36.47,36.47,0,0,0,36.43-36.43V10.54a10.54,10.54,0,0,1,21.08,0V83.75a57.57,57.57,0,0,1-57.51,57.51h-71A10.5,10.5,0,0,1,131.49,138.17Z"/><text class="cls-3" transform="translate(0 282.16)"><tspan class="cls-4">T</tspan><tspan x="39.27" y="0">heym</tspan><tspan class="cls-5" x="217.7" y="0">e</tspan><tspan x="256.1" y="0">t·me</tspan></text></g></g></svg>