<svg xmlns="http://www.w3.org/2000/svg" xmlns:xlink="http://www.w3.org/1999/xlink" viewBox="0 0 68 68"><defs><style>.cls-1{fill:url(#Dégradé_sans_nom_13);}.cls-2{fill:url(#Dégradé_sans_nom_13-2);}</style><linearGradient id="Dégradé_sans_nom_13" x1="16.02" y1="28.08" x2="188.41" y2="84.83" gradientUnits="userSpaceOnUse"><stop offset="0" stop-color="#ff007c"/><stop offset="0.02" stop-color="#f4007f"/><stop offset="0.11" stop-color="#bc0090"/><stop offset="0.21" stop-color="#8a009f"/><stop offset="0.31" stop-color="#5f00ac"/><stop offset="0.41" stop-color="#3d00b7"/><stop offset="0.51" stop-color="#2200bf"/><stop offset="0.61" stop-color="#0f00c4"/><stop offset="0.72" stop-color="#0400c8"/><stop offset="0.83" stop-color="#0000c9"/></linearGradient><linearGradient id="Dégradé_sans_nom_13-2" x1="-2397.01" y1="2363.62" x2="-2401.27" y2="2392.92" gradientTransform="translate(-2364.52 2399.57) rotate(180)" xlink:href="#Dégradé_sans_nom_13"/></defs><title>goback</title><g id="Calque_2" data-name="Calque 2"><g id="Calque_1-2" data-name="Calque 1"><path class="cls-1" d="M34,68A34,34,0,1,1,68,34,34,34,0,0,1,34,68ZM34,1.44A32.56,32.56,0,1,0,66.56,34,32.6,32.6,0,0,0,34,1.44Z"/><path class="cls-2" d="M36.16,21.37a1.41,1.41,0,0,1,1,2.4l-6.69,6.69a4.86,4.86,0,0,0,0,6.87l6.9,6.9a1.41,1.41,0,0,1-2,2l-6.9-6.9a7.68,7.68,0,0,1,0-10.84l6.69-6.69A1.4,1.4,0,0,1,36.16,21.37Z"/></g></g></svg>