<svg xmlns="http://www.w3.org/2000/svg" xmlns:xlink="http://www.w3.org/1999/xlink" viewBox="0 0 264.85 363.5"><defs><style>.cls-1{fill:url(#Dégradé_sans_nom_13);}.cls-2{fill:url(#Dégradé_sans_nom_13-2);}</style><linearGradient id="Dégradé_sans_nom_13" x1="348.74" y1="276.82" x2="287.93" y2="695.38" gradientTransform="translate(134.65 -314.53) rotate(45)" gradientUnits="userSpaceOnUse"><stop offset="0" stop-color="#ff007c"/><stop offset="0.02" stop-color="#f4007f"/><stop offset="0.11" stop-color="#bc0090"/><stop offset="0.21" stop-color="#8a009f"/><stop offset="0.31" stop-color="#5f00ac"/><stop offset="0.41" stop-color="#3d00b7"/><stop offset="0.51" stop-color="#2200bf"/><stop offset="0.61" stop-color="#0f00c4"/><stop offset="0.72" stop-color="#0400c8"/><stop offset="0.83" stop-color="#0000c9"/></linearGradient><linearGradient id="Dégradé_sans_nom_13-2" x1="369.83" y1="291.18" x2="309.03" y2="709.75" xlink:href="#Dégradé_sans_nom_13"/></defs><title>Fichier 1</title><g id="Calque_2" data-name="Calque 2"><g id="Calque_1-2" data-name="Calque 1"><path class="cls-1" d="M5.88,357.63A20,20,0,0,1,0,343.43V204A109.53,109.53,0,0,1,109.54,94.45H244.77a20.08,20.08,0,1,1,0,40.15H109.54A69.39,69.39,0,0,0,40.16,204V343.43a20.08,20.08,0,0,1-34.27,14.2Z"/><path class="cls-2" d="M5.88,263.18a20.08,20.08,0,0,1,14.2-34.27H155.31a69.47,69.47,0,0,0,69.39-69.39V20.08a20.08,20.08,0,0,1,40.15,0V159.52A109.67,109.67,0,0,1,155.31,269.06H20.08A20,20,0,0,1,5.88,263.18Z"/></g></g></svg>