<svg xmlns="http://www.w3.org/2000/svg" xmlns:xlink="http://www.w3.org/1999/xlink" viewBox="0 0 1074.02 363.5"><defs><style>.cls-1{fill:url(#Dégradé_sans_nom_13);}.cls-2{fill:url(#Dégradé_sans_nom_13-2);}.cls-3{fill:#0b0b4d;}</style><linearGradient id="Dégradé_sans_nom_13" x1="-426.82" y1="-512.97" x2="-487.63" y2="-94.4" gradientTransform="translate(124.59 792.34) rotate(45)" gradientUnits="userSpaceOnUse"><stop offset="0" stop-color="#ff007c"/><stop offset="0.02" stop-color="#f4007f"/><stop offset="0.11" stop-color="#bc0090"/><stop offset="0.21" stop-color="#8a009f"/><stop offset="0.31" stop-color="#5f00ac"/><stop offset="0.41" stop-color="#3d00b7"/><stop offset="0.51" stop-color="#2200bf"/><stop offset="0.61" stop-color="#0f00c4"/><stop offset="0.72" stop-color="#0400c8"/><stop offset="0.83" stop-color="#0000c9"/></linearGradient><linearGradient id="Dégradé_sans_nom_13-2" x1="-405.72" y1="-498.6" x2="-466.53" y2="-80.03" xlink:href="#Dégradé_sans_nom_13"/></defs><title>logo horz</title><g id="Calque_2" data-name="Calque 2"><g id="Calque_1-2" data-name="Calque 1"><path class="cls-1" d="M5.88,357.63A20,20,0,0,1,0,343.43V204A109.53,109.53,0,0,1,109.54,94.45H244.77a20.08,20.08,0,1,1,0,40.15H109.54A69.39,69.39,0,0,0,40.16,204V343.43a20.08,20.08,0,0,1-34.27,14.2Z"/><path class="cls-2" d="M5.88,263.18a20.08,20.08,0,0,1,14.2-34.27H155.31a69.47,69.47,0,0,0,69.39-69.39V20.08a20.08,20.08,0,0,1,40.15,0V159.52A109.67,109.67,0,0,1,155.31,269.06H20.08A20,20,0,0,1,5.88,263.18Z"/><path class="cls-3" d="M399.13,133.22v3.89c0,2.08-.69,2.78-2.78,2.78h-28V226.2c0,2.08-.69,2.78-2.78,2.78H361c-2.08,0-2.78-.69-2.78-2.78V139.88h-28c-2.08,0-2.78-.69-2.78-2.78v-3.89c0-2.08.69-2.78,2.78-2.78h66.2C398.44,130.44,399.13,131.14,399.13,133.22Z"/><path class="cls-3" d="M419,128.78v30.67c4.3-1.94,12.07-3.89,21.79-3.89,19,0,27.62,10,27.62,27.2v43.71c0,1.94-.69,2.5-2.5,2.5h-4.44c-1.8,0-2.5-.55-2.5-2.5V183c0-12.21-6.11-18.87-19.43-18.87-8.6,0-16.1,1.8-20.54,4v58.29c0,1.94-.56,2.5-2.5,2.5h-4.3c-1.94,0-2.5-.55-2.5-2.5v-97.7c0-1.94.55-2.5,2.5-2.5h4.3C418.42,126.28,419,126.83,419,128.78Z"/><path class="cls-3" d="M514,155.56c20.82,0,30.81,12.07,30.81,28.73v7.63c0,2.36-1.11,3.89-4.16,3.89h-48v8c0,11.8,7.08,19,20.82,19,11.38,0,17.9-4.58,21.79-11.52,1.25-1.67,2.22-1.94,4-1l2.91,1.53c1.8,1,2.08,2.22,1,4-4.86,8.74-13.74,15-29.7,15-20.82,0-30.12-11.38-30.12-28v-18C483.37,166.53,493.92,155.56,514,155.56Zm0,8c-14.16,0-21.37,7.77-21.37,20.12v4.86h42.88v-4.86C535.55,171.38,528.34,163.61,514,163.61Z"/><path class="cls-3" d="M617.71,160.14v73.14c0,18-8.46,30-29.56,30-14.85,0-22.9-6.11-27.62-14.85-1.11-1.8-.83-3.19,1-4.16l3.05-1.53c2.08-1.11,2.92-.69,4,1,3.61,6.66,8.88,11.1,19.43,11.1,14.16,0,20.26-7.91,20.26-21.09v-8.19a68.82,68.82,0,0,1-21.79,3.61c-19,0-27.48-10-27.48-27.06V160.14c0-1.94.55-2.5,2.5-2.5h4.3c1.94,0,2.5.55,2.5,2.5v41.49c0,12.49,6,19,19.43,19a62.08,62.08,0,0,0,20.54-3.75V160.14c0-1.94.69-2.5,2.5-2.5h4.44C617,157.64,617.71,158.2,617.71,160.14Z"/><path class="cls-3" d="M706.25,155.56c17.63,0,25.4,9.3,25.4,26.37v44.55c0,1.94-.55,2.5-2.5,2.5h-4.3c-1.94,0-2.5-.55-2.5-2.5V182.35c0-12.35-5.55-18.18-17.21-18.18a40.29,40.29,0,0,0-18.87,4.72c1.8,3.47,2.64,7.77,2.64,13v44.55c0,1.94-.55,2.5-2.5,2.5h-4.3c-1.94,0-2.5-.55-2.5-2.5V182.35c0-12.35-5.83-18.18-17.62-18.18a34.08,34.08,0,0,0-14.57,2.78c-2.08,1-2.22,2.22-2.22,3.75v55.79c0,1.94-.69,2.5-2.5,2.5h-4.44c-1.8,0-2.5-.55-2.5-2.5V167.91c0-4.3,1.11-6.11,5.27-7.91a52,52,0,0,1,22.2-4.44c7.91,0,13.88,2.08,17.9,6A55.18,55.18,0,0,1,706.25,155.56Z"/><path class="cls-3" d="M777.45,155.56c20.82,0,30.81,12.07,30.81,28.73v7.63c0,2.36-1.11,3.89-4.16,3.89h-48v8c0,11.8,7.08,19,20.82,19,11.38,0,17.9-4.58,21.79-11.52,1.25-1.67,2.22-1.94,4-1l2.92,1.53c1.8,1,2.08,2.22,1,4-4.86,8.74-13.74,15-29.7,15-20.82,0-30.12-11.38-30.12-28v-18C746.78,166.53,757.32,155.56,777.45,155.56Zm0,8c-14.16,0-21.37,7.77-21.37,20.12v4.86H799v-4.86C799,171.38,791.74,163.61,777.45,163.61Z"/><path class="cls-3" d="M839.07,143.49v14.16h20.12c1.8,0,2.5.55,2.5,2.5v3.61c0,1.8-.69,2.5-2.5,2.5H839.07v36.08c0,16.51,4.86,19.71,19.85,19.71,1.94,0,2.5.69,2.5,2.64v3.75c0,1.94-.56,2.5-2.5,2.5-21.37.42-29.14-6-29.14-28.31V166.25H816.59c-1.8,0-2.5-.69-2.5-2.5v-3.61c0-1.94.69-2.5,2.5-2.5h13.18V143.49c0-1.94.69-2.5,2.5-2.5h4.3C838.51,141,839.07,141.54,839.07,143.49Z"/><path class="cls-3" d="M883.76,190.67v1c0,4.16-1.25,5.41-5.41,5.41h-.83c-4.16,0-5.55-1.25-5.55-5.41v-1c0-4.16,1.39-5.55,5.55-5.55h.83C882.51,185.12,883.76,186.51,883.76,190.67Z"/><path class="cls-3" d="M972,155.56c17.62,0,25.4,9.3,25.4,26.37v44.55c0,1.94-.56,2.5-2.5,2.5h-4.3c-1.94,0-2.5-.55-2.5-2.5V182.35c0-12.35-5.55-18.18-17.21-18.18A40.29,40.29,0,0,0,952,168.88c1.8,3.47,2.64,7.77,2.64,13v44.55c0,1.94-.56,2.5-2.5,2.5h-4.3c-1.94,0-2.5-.55-2.5-2.5V182.35c0-12.35-5.83-18.18-17.62-18.18a34.09,34.09,0,0,0-14.57,2.78c-2.08,1-2.22,2.22-2.22,3.75v55.79c0,1.94-.69,2.5-2.5,2.5H904c-1.8,0-2.5-.55-2.5-2.5V167.91c0-4.3,1.11-6.11,5.27-7.91A52,52,0,0,1,929,155.56c7.91,0,13.88,2.08,17.9,6A55.18,55.18,0,0,1,972,155.56Z"/><path class="cls-3" d="M1043.21,155.56c20.82,0,30.81,12.07,30.81,28.73v7.63c0,2.36-1.11,3.89-4.16,3.89h-48v8c0,11.8,7.08,19,20.82,19,11.38,0,17.9-4.58,21.79-11.52,1.25-1.67,2.22-1.94,4-1l2.92,1.53c1.8,1,2.08,2.22,1,4-4.86,8.74-13.74,15-29.7,15-20.82,0-30.12-11.38-30.12-28v-18C1012.54,166.53,1023.09,155.56,1043.21,155.56Zm0,8c-14.16,0-21.37,7.77-21.37,20.12v4.86h42.88v-4.86C1064.72,171.38,1057.51,163.61,1043.21,163.61Z"/></g></g></svg>