<svg xmlns="http://www.w3.org/2000/svg" viewBox="0 0 43.97 42.4"><defs><style>.cls-1{fill:#fff;}</style></defs><title>setting</title><g id="Calque_2" data-name="Calque 2"><g id="Calque_1-2" data-name="Calque 1"><path class="cls-1" d="M11,36.91a5.5,5.5,0,0,0-4.71-5.43V.79a.79.79,0,0,0-1.57,0V31.47A5.49,5.49,0,1,0,11,36.91Zm-9.42,0A3.93,3.93,0,1,1,5.5,40.83,3.93,3.93,0,0,1,1.57,36.91Z"/><path class="cls-1" d="M33,5.5a5.5,5.5,0,0,0,4.71,5.43V41.62a.79.79,0,0,0,1.57,0V10.93A5.49,5.49,0,1,0,33,5.5Zm9.42,0a3.93,3.93,0,1,1-3.93-3.93A3.93,3.93,0,0,1,42.4,5.5Z"/><path class="cls-1" d="M21.2.79V15.42a5.66,5.66,0,0,0,0,11.25v15a.79.79,0,0,0,1.57,0v-15a5.65,5.65,0,0,0,0-11.15V.79a.79.79,0,1,0-1.57,0ZM25.91,21A4.09,4.09,0,1,1,21.82,17,4.09,4.09,0,0,1,25.91,21Z"/></g></g></svg>