<svg xmlns="http://www.w3.org/2000/svg" viewBox="0 0 391.98 71.91"><defs><style>.cls-1{fill:#0b0b4d;}</style></defs><title>theymetme typo</title><g id="Calque_2" data-name="Calque 2"><g id="Calque_1-2" data-name="Calque 1"><path class="cls-1" d="M37.67,3.64v2c0,1.09-.36,1.46-1.46,1.46H21.49V52.46c0,1.09-.36,1.46-1.46,1.46h-2.4c-1.09,0-1.46-.36-1.46-1.46V7.14H1.46C.36,7.14,0,6.78,0,5.68v-2C0,2.55.36,2.19,1.46,2.19H36.21C37.3,2.19,37.67,2.55,37.67,3.64Z"/><path class="cls-1" d="M48.09,1.31v16.1a29.38,29.38,0,0,1,11.44-2c10,0,14.5,5.25,14.5,14.28v23c0,1-.36,1.31-1.31,1.31H70.38c-.95,0-1.31-.29-1.31-1.31V29.8c0-6.41-3.21-9.91-10.2-9.91A25.59,25.59,0,0,0,48.09,22v30.6c0,1-.29,1.31-1.31,1.31H44.52c-1,0-1.31-.29-1.31-1.31V1.31c0-1,.29-1.31,1.31-1.31h2.26C47.8,0,48.09.29,48.09,1.31Z"/><path class="cls-1" d="M98,15.37c10.93,0,16.17,6.34,16.17,15.08v4c0,1.24-.58,2-2.19,2H86.77v4.23c0,6.19,3.72,10,10.93,10,6,0,9.4-2.4,11.44-6,.66-.87,1.17-1,2.11-.51l1.53.8c.95.51,1.09,1.17.51,2.11-2.55,4.59-7.21,7.87-15.59,7.87-10.93,0-15.81-6-15.81-14.72V30.75C81.89,21.13,87.43,15.37,98,15.37Zm0,4.23c-7.43,0-11.22,4.08-11.22,10.56v2.55h22.51V30.16C109.29,23.68,105.5,19.6,98,19.6Z"/><path class="cls-1" d="M152.42,17.78v38.4c0,9.47-4.44,15.74-15.52,15.74-7.8,0-12-3.21-14.5-7.8a1.35,1.35,0,0,1,.51-2.19l1.6-.8c1.09-.58,1.53-.36,2.11.51,1.89,3.5,4.66,5.83,10.2,5.83,7.43,0,10.64-4.15,10.64-11.07V52.1A36.13,36.13,0,0,1,136,54c-10,0-14.43-5.25-14.43-14.21v-22c0-1,.29-1.31,1.31-1.31h2.26c1,0,1.31.29,1.31,1.31V39.56c0,6.56,3.13,10,10.2,10a32.61,32.61,0,0,0,10.78-2V17.78c0-1,.36-1.31,1.31-1.31h2.33C152.06,16.47,152.42,16.76,152.42,17.78Z"/><path class="cls-1" d="M198.91,15.37c9.25,0,13.33,4.88,13.33,13.84V52.61c0,1-.29,1.31-1.31,1.31h-2.26c-1,0-1.31-.29-1.31-1.31V29.44c0-6.48-2.91-9.54-9-9.54a21.15,21.15,0,0,0-9.91,2.48,14.71,14.71,0,0,1,1.38,6.85V52.61c0,1-.29,1.31-1.31,1.31h-2.26c-1,0-1.31-.29-1.31-1.31V29.44c0-6.48-3.06-9.54-9.25-9.54A17.9,17.9,0,0,0,168,21.35a1.79,1.79,0,0,0-1.17,2V52.61c0,1-.36,1.31-1.31,1.31H163.2c-.95,0-1.31-.29-1.31-1.31V21.86c0-2.26.58-3.21,2.77-4.15a27.32,27.32,0,0,1,11.66-2.33c4.15,0,7.29,1.09,9.4,3.13A29,29,0,0,1,198.91,15.37Z"/><path class="cls-1" d="M236.28,15.37c10.93,0,16.17,6.34,16.17,15.08v4c0,1.24-.58,2-2.19,2H225.06v4.23c0,6.19,3.72,10,10.93,10,6,0,9.4-2.4,11.44-6,.66-.87,1.17-1,2.11-.51l1.53.8c.95.51,1.09,1.17.51,2.11-2.55,4.59-7.21,7.87-15.59,7.87-10.93,0-15.81-6-15.81-14.72V30.75C220.18,21.13,225.72,15.37,236.28,15.37Zm0,4.23c-7.43,0-11.22,4.08-11.22,10.56v2.55h22.51V30.16C247.57,23.68,243.79,19.6,236.28,19.6Z"/><path class="cls-1" d="M268.63,9v7.43H279.2c.95,0,1.31.29,1.31,1.31v1.89c0,.95-.36,1.31-1.31,1.31H268.63V39.93c0,8.67,2.55,10.35,10.42,10.35,1,0,1.31.36,1.31,1.38v2c0,1-.29,1.31-1.31,1.31-11.22.22-15.3-3.13-15.3-14.86V21h-6.92c-.95,0-1.31-.36-1.31-1.31V17.78c0-1,.36-1.31,1.31-1.31h6.92V9c0-1,.36-1.31,1.31-1.31h2.26C268.34,7.72,268.63,8,268.63,9Z"/><path class="cls-1" d="M292.09,33.81v.51c0,2.19-.66,2.84-2.84,2.84h-.44c-2.19,0-2.91-.66-2.91-2.84v-.51c0-2.19.73-2.92,2.91-2.92h.44C291.43,30.89,292.09,31.62,292.09,33.81Z"/><path class="cls-1" d="M338.43,15.37c9.25,0,13.33,4.88,13.33,13.84V52.61c0,1-.29,1.31-1.31,1.31h-2.26c-1,0-1.31-.29-1.31-1.31V29.44c0-6.48-2.91-9.54-9-9.54a21.15,21.15,0,0,0-9.91,2.48,14.7,14.7,0,0,1,1.38,6.85V52.61c0,1-.29,1.31-1.31,1.31h-2.26c-1,0-1.31-.29-1.31-1.31V29.44c0-6.48-3.06-9.54-9.25-9.54a17.9,17.9,0,0,0-7.65,1.46,1.79,1.79,0,0,0-1.17,2V52.61c0,1-.36,1.31-1.31,1.31h-2.33c-.95,0-1.31-.29-1.31-1.31V21.86c0-2.26.58-3.21,2.77-4.15a27.32,27.32,0,0,1,11.66-2.33c4.15,0,7.29,1.09,9.4,3.13A29,29,0,0,1,338.43,15.37Z"/><path class="cls-1" d="M375.8,15.37c10.93,0,16.18,6.34,16.18,15.08v4c0,1.24-.58,2-2.19,2H364.58v4.23c0,6.19,3.72,10,10.93,10,6,0,9.4-2.4,11.44-6,.66-.87,1.17-1,2.11-.51l1.53.8c.95.51,1.09,1.17.51,2.11-2.55,4.59-7.21,7.87-15.59,7.87-10.93,0-15.81-6-15.81-14.72V30.75C359.7,21.13,365.24,15.37,375.8,15.37Zm0,4.23c-7.43,0-11.22,4.08-11.22,10.56v2.55H387.1V30.16C387.1,23.68,383.31,19.6,375.8,19.6Z"/></g></g></svg>