<svg xmlns="http://www.w3.org/2000/svg" xmlns:xlink="http://www.w3.org/1999/xlink" viewBox="0 0 59.02 59"><defs><style>.cls-1{fill:url(#Dégradé_sans_nom_13);}</style><linearGradient id="Dégradé_sans_nom_13" x1="31.27" y1="76.49" x2="25.26" y2="-83.88" gradientUnits="userSpaceOnUse"><stop offset="0" stop-color="#ff007c"/><stop offset="0.02" stop-color="#f4007f"/><stop offset="0.11" stop-color="#bc0090"/><stop offset="0.21" stop-color="#8a009f"/><stop offset="0.31" stop-color="#5f00ac"/><stop offset="0.41" stop-color="#3d00b7"/><stop offset="0.51" stop-color="#2200bf"/><stop offset="0.61" stop-color="#0f00c4"/><stop offset="0.72" stop-color="#0400c8"/><stop offset="0.83" stop-color="#0000c9"/></linearGradient></defs><title>user</title><g id="Calque_2" data-name="Calque 2"><g id="Calque_1-2" data-name="Calque 1"><path class="cls-1" d="M50.38,8.63A29.51,29.51,0,0,0,1.75,39.52,1.2,1.2,0,1,0,4,38.7a27.11,27.11,0,1,1,45.15,9.46l-.17.18-.31.32a27.14,27.14,0,0,1-38.34,0l-.17-.17c0-.11,0-.22,0-.33s0-.48,0-.72c0-.08,0-.16,0-.24s0-.32,0-.48,0-.19,0-.28,0-.29,0-.43,0-.2,0-.3,0-.27.05-.41l.05-.31c0-.13,0-.26.07-.39l.06-.31.08-.38.07-.31.09-.37.08-.31.1-.37.1-.3.12-.36.11-.3.13-.35.12-.3.14-.35.13-.29L12,40l.14-.29.17-.34.15-.28.18-.33.16-.27.19-.32.17-.27.2-.32.17-.26.22-.31.18-.26.23-.3.19-.25.24-.3.2-.24.25-.29.21-.23.26-.28.21-.22.28-.27.22-.21.29-.27.22-.2L17,33.4l.23-.19.32-.26.23-.18.35-.25.22-.16.39-.26.19-.13.52-.32.08-.05.62-.35.22-.11.42-.22.27-.13.34-.16a11.69,11.69,0,0,0,16.19,0,19.56,19.56,0,0,1,9.62,9.79,1.2,1.2,0,1,0,2.2-1A21.66,21.66,0,0,0,39.21,28.72a11.72,11.72,0,0,0-9.7-18.32,1.2,1.2,0,0,0,0,2.4,9.32,9.32,0,0,1,6.92,15.57h0a9.3,9.3,0,0,1-13.85,0h0a9.31,9.31,0,0,1,.36-12.87,1.2,1.2,0,0,0-1.69-1.71,11.71,11.71,0,0,0-1.45,14.92l0,0-.28.14-.43.22-.29.17-.39.22-.3.18-.37.23-.3.2-.35.24-.29.21-.34.25-.29.22-.33.26-.28.23-.32.27L15,32l-.31.28-.26.25-.3.29-.25.25-.29.31-.24.26L13,34l-.22.26-.28.34-.21.26L12,35.2l-.18.24-.35.5-.09.13-.41.64-.13.23-.26.43-.15.28-.22.4-.15.3-.19.39L9.77,39l-.18.39-.14.32-.16.39-.13.33L9,40.87l-.12.34-.13.4-.1.34-.12.41-.09.34-.1.41-.08.35-.09.42-.07.35c0,.14,0,.29-.07.43L8,45c0,.15,0,.3-.06.45s0,.22,0,.33,0,.32,0,.47,0,.21,0,.32,0,.35,0,.53,0,.18,0,.26q0,.4,0,.8c0,.29,0,.56,0,.87a1.23,1.23,0,0,0,0,.2v0a1.18,1.18,0,0,0,.06.19v0a1.19,1.19,0,0,0,.09.17v0l.12.15h0l.16.17.36.38a29.55,29.55,0,0,0,41.74,0l.36-.38.16-.17a29.51,29.51,0,0,0-.52-41.19Z"/></g></g></svg>